<svg xmlns="http://www.w3.org/2000/svg" width="12" height="16" viewBox="0 0 12 16">
  <g id="clipboard-listW" transform="translate(-4 -2)">
    <path id="Path_10" data-name="Path 10" d="M9,2A1,1,0,0,0,9,4h2a1,1,0,0,0,0-2Z" fill="#fff"/>
    <path id="Path_11" data-name="Path 11" d="M4,5A2,2,0,0,1,6,3,3,3,0,0,0,9,6h2a3,3,0,0,0,3-3,2,2,0,0,1,2,2V16a2,2,0,0,1-2,2H6a2,2,0,0,1-2-2ZM7,9a1,1,0,0,0,0,2h.01a1,1,0,0,0,0-2Zm3,0a1,1,0,0,0,0,2h3a1,1,0,0,0,0-2ZM7,13a1,1,0,0,0,0,2h.01a1,1,0,0,0,0-2Zm3,0a1,1,0,0,0,0,2h3a1,1,0,0,0,0-2Z" fill="#fff" fill-rule="evenodd"/>
  </g>
</svg>
