<?xml version="1.0" encoding="utf-8"?>
<!-- Generator: Adobe Illustrator 23.1.0, SVG Export Plug-In . SVG Version: 6.00 Build 0)  -->
<svg version="1.1" id="Layer_1" xmlns="http://www.w3.org/2000/svg" xmlns:xlink="http://www.w3.org/1999/xlink" x="0px" y="0px"
	 viewBox="0 0 500 500" style="enable-background:new 0 0 500 500;" xml:space="preserve" preserveAspectRatio="none">
<style type="text/css">
	.st0{clip-path:url(#SVGID_2_);fill:#00CEC8;}
	.st1{fill:#173885;}
	.st2{fill:#142585;}
	.st3{fill:#F59493;}
	.st4{fill:#385BD6;}
	.st5{fill:#C2D5FF;}
	.st6{fill:#C0CAE3;}
	.st7{fill:#FFFFFF;}
	.st8{fill:#D67474;}
	.st9{fill:#4A74FF;}
	.st10{fill:#122175;}
	.st11{fill:#E6EEFF;}
	.st12{fill:#183180;}
	.st13{fill:#99B2E8;}
	.st14{fill:#8EA3D4;}
	.st15{fill:#C9E4FF;}
	.st16{fill:none;stroke:#E38A78;stroke-width:0.8295;stroke-linecap:round;stroke-linejoin:round;stroke-miterlimit:10;}
	.st17{fill:none;stroke:#9EB9DB;stroke-linecap:round;stroke-linejoin:round;stroke-miterlimit:10;}
	.st18{fill:#D8E3FF;}
	.st19{fill:none;stroke:#FFFFFF;stroke-width:1.5636;stroke-linecap:round;stroke-linejoin:round;stroke-miterlimit:10;}
	.st20{fill:#A3BEF7;}
	.st21{fill:none;stroke:#142585;stroke-width:2;stroke-linecap:round;stroke-linejoin:round;stroke-miterlimit:10;}
	.st22{fill:#0F1B61;}
	.st23{fill:#FBFBFF;}
	.st24{fill:none;stroke:#142585;stroke-linecap:round;stroke-linejoin:round;stroke-miterlimit:10;}
	.st25{fill:#1ADBCF;}
	.st26{fill:#F0F5FF;}
	.st27{opacity:0.28;}
	.st28{fill:none;stroke:#FFFFFF;stroke-width:0.9459;stroke-linecap:round;stroke-linejoin:round;stroke-miterlimit:10;}
</style>
<g>
	<g>
		<defs>
			<rect id="SVGID_1_" x="0.1" y="0.5" width="500" height="500"/>
		</defs>
		<clipPath id="SVGID_2_">
			<use xlink:href="#SVGID_1_"  style="overflow:visible;"/>
		</clipPath>
		<path class="st0" d="M-13,496.5c0,8.3,5.1,15,11.4,15l488.6-0.8c-2-154.4-203.4-269.8-252.4-419.8S-13-9.7-13-9.7V496.5z"/>
	</g>
</g>
<path class="st1" d="M36.9,410.8L22.4,271.2c-0.4-4.4-3.2-37.7,29.5-39.3l88.8-12.9c4.4-0.6,27.4,3.1,27.4,28.1l12.7,145.1
	c0.4,4.4-3,8.4-7.4,9L45.6,417.7C41.2,418.3,37.2,415.2,36.9,410.8z"/>
<path class="st2" d="M121.7,203.8c-4.2,17.6,10.6,24,10.6,24C143.2,201,125.8,186.1,121.7,203.8z"/>
<path class="st3" d="M166.9,259.2c15.1-9.9,23.1,11.1,23.1,11.1l20.5,57.7c1.3,4-1.7,9.6-6.7,12.1l-1.9,0.9
	c-3.1,1.5-6.2,0.9-7.3-1.4l-29.9-63.1C164.7,276.5,159.2,264.1,166.9,259.2z"/>
<path class="st4" d="M86.8,281.2l2.9,8.4c0-10.4,8.2-32.1,14.9-34l35.9-12l24.3,5.2c10.1,3.5,25.1,13.1,25.1,23.5l0,0
	c0,10.4,2.9,92.7-5.9,92.9l-37.6,5.1C137.6,370.5,86.8,291.5,86.8,281.2z"/>
<polygon class="st5" points="2.7,402.9 2.5,392.4 299.1,345.7 455.2,404 152.3,462.2 "/>
<path class="st6" d="M169.9,397.5l50.4,13.9c3.9,1,11.1,1.1,16.2,0.3l75.4-12.6c5.1-0.8,6.1-2.4,2.2-3.4l-17.2-4.6
	c-0.3-0.3-1-0.6-2-0.9l-36.6-9.7c-3.9-1-11.1-1.1-16.2-0.3l-75.2,10.5C166.9,390.7,166.2,396.6,169.9,397.5z"/>
<path class="st7" d="M169.2,392.2l55.9,15.2c3.9,1,11.1,1.1,16.2,0.3l75.4-12.6c5.1-0.8,6.1-2.4,2.2-3.4l-17.2-4.6
	c-0.3-0.3-1-0.6-2-0.9l-36.6-9.7c-3.9-1-11.1-1.1-16.2-0.3l-75.4,12.6C166.4,389.6,165.4,391.1,169.2,392.2z"/>
<path class="st3" d="M85.4,271.8c20.8-14.4,22.3,6.1,22.3,6.1l25.5,59.8c1.6,4-1.1,9.7-5.9,12.5l-1.8,1.1c-3,1.8-6.1,1.4-7.4-0.9
	l-33.7-61.1C84.4,289.3,82.5,273.8,85.4,271.8z"/>
<path class="st3" d="M207.6,320.2l65.3,47.9l-14.7,4.8c0,0-53.2-16.7-64.2-33.6L207.6,320.2z"/>
<path class="st3" d="M126.3,259.5c2-14.2,2.7-27.7,5.9-42.4c0.7-5.9,11.8-10.7,17.2-10.1l1.8,0.2c5.4,0.6,9.3,6,8.6,11.9
	c-3.6,19.1-7.5,31.7,2.6,35.6c-0.7,5.9-20.2,5.1-25.6,4.5l-0.6,1C130.8,259.6,125.6,265.5,126.3,259.5z"/>
<path class="st8" d="M136.8,226.8l3,4.2c4.7,9.4,11.8,13.6,16,15.5l0.4-6.1L136.8,226.8z"/>
<path class="st9" d="M156,245.7c0.9,9.9-8.5,13.6-8.5,13.6l15.9,7.3c6.3-5.4,2.5-18,2.5-18l-7.1-4.5
	C157.4,243.4,155.9,244.3,156,245.7z"/>
<path class="st9" d="M128.2,242.4c6.1,9.9,20.9,17.4,20.9,17.4l-13.3,10.8c-9.8-5.3-18.4-21.6-18.4-21.6l6.3-6.6
	C124.8,241.1,127.3,241,128.2,242.4z"/>
<path class="st2" d="M161.2,207c0,0,18.8,7.5,23.7-12.4c5.3-21.6-20.5-22.8-20.5-22.8L161.2,207z"/>
<path class="st3" d="M133.3,221.6l-4.7-26.3c0.3-14.1,11.5-19.9,24.3-19.6l1.1,1.4c12.9,0.3,22.9,3.6,22.5,17.7l-0.5,25.3
	C172.1,260.9,133.1,232.9,133.3,221.6z"/>
<path class="st10" d="M152,209.4c-0.9-0.1-1.8,1-1.8,2.4c0,1.3,0.7,2.5,1.7,2.5c0.9,0.1,1.8-1,1.8-2.4S153,209.4,152,209.4z"/>
<path class="st10" d="M170.1,209.3c-0.6,0-1.2,1.1-1.2,2.4c-0.1,1.3,0.4,2.4,1,2.4s1.2-1.1,1.2-2.4S170.7,209.3,170.1,209.3z"/>
<path class="st10" d="M147.6,202c2.5-0.9,3.9-1.2,7.4-0.7c2,0.2,1.9,2.4-0.2,2.2c-1.9-0.2-5.1-0.5-7-0.2
	C147,203.4,147.1,202.1,147.6,202z"/>
<path class="st10" d="M173.4,202.4c-1.7-1-2.6-1.3-5-0.9c-1.3,0.2-1.4,2.4,0,2.2c1.3-0.1,3.5-0.3,4.8,0
	C173.7,203.9,173.8,202.6,173.4,202.4z"/>
<path class="st3" d="M128.2,202.2c2.6-1,5.5,1.5,6.6,5.6c1.1,4.1-0.1,8.3-2.7,9.4c-2.6,1-5.5-1.5-6.6-5.6
	C124.4,207.4,125.7,203.2,128.2,202.2z"/>
<g>
	<path class="st8" d="M160.5,223.1c-0.4,0-0.7-0.2-0.6-0.6c0-0.3,0.3-0.6,0.6-0.6l0,0c1.2,0,2.1-0.3,2.5-0.9
		c0.3-0.5,0.3-1.1,0.2-1.5c-0.3-1.1-1.2-6-1.3-6.6c-0.1-0.3,0.2-0.6,0.5-0.7c0.3-0.1,0.6,0.2,0.7,0.5c0.3,1.5,1,5.6,1.3,6.4
		c0.2,0.7,0.2,1.7-0.4,2.6C163.5,222.3,162.5,223.1,160.5,223.1C160.5,223.1,160.4,223.1,160.5,223.1z"/>
</g>
<path class="st2" d="M166.6,176.5c4.2,34.7-46.9,28.7-46.9,28.7C117,157.3,164.6,159.7,166.6,176.5z"/>
<path class="st7" d="M162.5,232.7c-2.5,0.2-6.2-0.2-7.9-5.8l12.8-0.1C167.4,226.8,166.3,232.4,162.5,232.7z"/>
<path class="st11" d="M177.7,297.8c0,0,10.8,36.9,16.3,46.4c5.5,9.4,42.2,24.2,42.2,24.2c-5.2-11.3-1-19.3,8.8-25.3l-32-18.9
	c-6.4-68.2-30-71.1-30-71.1L177.7,297.8z"/>
<path class="st11" d="M191.6,282.9l6.2,78.7l-15,2.8c2.1-30.3-12.7-108.9-16.9-115.7c11.3,3.5,17.1,4.4,17.1,4.4L191.6,282.9z"/>
<path class="st11" d="M102.6,255.6c-17.4,7.5-19.4,11.5-20.6,25.3c0,0.4-0.1,0.8-0.1,1.2c-1.3,22.6,13.6,95.6,13.6,95.6l53.3-8.1
	c0,0,1.4-38.4-5.6-70.6c-10.1-46.5-26.9-49.9-26.9-49.9L102.6,255.6z"/>
<path class="st12" d="M150.8,264.5c1.2,0,2.2,1,2.2,2.2s-1,2.2-2.2,2.2s-2.2-1-2.2-2.2S149.6,264.5,150.8,264.5z"/>
<path class="st12" d="M153,272.2c1.2,0,2.2,1,2.2,2.2s-1,2.2-2.2,2.2s-2.2-1-2.2-2.2C150.8,273.2,151.8,272.2,153,272.2z"/>
<polygon class="st13" points="152.3,462.2 152.4,501 453.2,500.8 455.2,404 "/>
<path class="st14" d="M152.3,462.2L2.5,403.4v86.4c0,6.1,4.9,11,11,11l138.9,0.2L152.3,462.2z"/>
<path class="st15" d="M166.8,364.4c0,0-10.2,19.6-3.1,21.8c7,2.1,10.3-4.7,14.2-11.8c2.9-5.2-1.3-10-1.3-10H166.8z"/>
<g>
	<path class="st3" d="M181.7,375.6l-0.1,0.3c-2,5.1,2.3,9.7,2.3,9.7c1.3,0.9,8.4,6.1,16.7,5.4c2.7-0.2,15.8,6.1,22.5,9.4
		c2.2,1.1,4.9-0.2,5.8-2.7c0.2-0.4,0.3-0.9,0.5-1.3c1.3-3.6-1.2-5.7-1.2-5.7c3.7,2.1,3.1-1.9,2.2-2.6c-7.4-5.8-14.3-11.3-16.7-13.1
		c-0.5-0.4-1.2-0.7-1.9-0.8l-22-3.4C186.6,370.2,183.2,372.2,181.7,375.6z"/>
	<line class="st16" x1="228.3" y1="390.7" x2="210" y2="378.2"/>
	<line class="st16" x1="229.2" y1="396.8" x2="210.8" y2="384.3"/>
	<line class="st16" x1="226.5" y1="399.3" x2="209.7" y2="389.3"/>
</g>
<path class="st3" d="M139.5,352.8l57.2,21.5l-9.5,12.4c0,0-53.3-8.6-67.9-23.1L139.5,352.8z"/>
<path class="st11" d="M81.9,275.1c-3.2,9.6,5.4,36.5,5.4,36.5s17.5,49,22.8,53.3s53.5,21.3,53.5,21.3c-5.3-18.7,13-21.8,13-21.8
	l-48.7-22.7l-30.5-81.8C83.9,262.9,81.9,275.2,81.9,275.1z"/>
<polyline class="st17" points="176.6,364.4 127.7,340.7 114.8,301.5 114.8,297.1 "/>
<polyline class="st17" points="195.6,289.2 193,296.9 196.6,346.6 "/>
<g>
	<path class="st7" d="M228.2,402.6l20.4-58.9c2.2-6.2,8.5-12,14.1-12.9l83.7-13.5c5.6-1,8.4,3.4,6.3,9.6l-20.4,58.9
		c-2.2,6.2-8.5,12-14.1,12.9l-83.7,13.5C228.9,413.1,226.1,408.7,228.2,402.6z"/>
	<path class="st18" d="M232.3,401.9l20.4-58.9c2.2-6.2,8.5-12,14.1-12.9l83.7-13.5c5.6-1,8.4,3.4,6.3,9.6l-20.4,58.9
		c-2.2,6.2-8.5,12-14.1,12.9l-83.6,13.5C233,412.4,230.2,408.1,232.3,401.9z"/>
	<path class="st19" d="M301.7,354.4c4.5-0.7,7,2.7,5.6,7.6c-1.4,4.9-6.2,9.5-10.7,10.2c-4.5,0.7-7-2.7-5.6-7.6
		S297.2,355.1,301.7,354.4z"/>
</g>
<polygon class="st13" points="130.5,436.6 83.4,407.3 139.3,398.7 197.8,425.5 "/>
<path class="st17" d="M208.6,325.2c0.6-1.4,4.4-0.9,4.4-0.9"/>
<path class="st17" d="M124,342.2c0.6-1.4,4.4-0.9,4.4-0.9"/>
<polygon class="st20" points="130.5,434.5 83.4,405.1 139.3,396.6 197.8,423.4 "/>
<polygon class="st7" points="130.5,431.8 83.4,402.5 139.3,393.9 197.8,420.7 "/>
<g>
	<g>
		<path class="st21" d="M119.5,281.5c-0.9-6.4-0.3-12.9-2.3-19.1c-1-3.1-1.1-6.1-1.7-9.3c-2.1-10.8,12-11.7,12-11.7"/>
	</g>
	<g>
		<path class="st21" d="M129.7,275.7c-1-8.3-7-10.7-12.3-15.8"/>
	</g>
	<path class="st6" d="M119.5,283.3l14.1,23.2c2.3,3.8,7.3,5,11.1,2.7l0.8-0.5c-0.3-0.8-0.7-1.5-1.1-2.3c-5.2,3-7.1,0.9-9.8-3.2
		l-11.8-19.4C120.5,280.1,117.1,279.4,119.5,283.3z"/>
	<path class="st22" d="M149,305.7l0.2,0.4c0.4,0.8,0,1.8-0.8,2.2l-2.9,1.3c-0.8,0.4-1.8,0-2.2-0.8l-0.2-0.4c-0.4-0.8,0-1.8,0.8-2.2
		l2.9-1.3C147.7,304.5,148.6,304.9,149,305.7z"/>
	<path class="st6" d="M131.9,277.7l3,27c0.5,4.4-2.8,8.4-7.2,8.9l-0.9,0.1c-0.2-0.8-0.3-1.7-0.5-2.5c6-0.8,6.2-3.6,5.8-8.5
		l-2.5-22.5C129.1,275.8,131.4,273.2,131.9,277.7z"/>
	<path class="st22" d="M122.2,313.5l0.1,0.5c0.2,0.8,1.1,1.4,2,1.2l3.1-0.7c0.8-0.2,1.4-1.1,1.2-2l-0.1-0.5c-0.2-0.8-1.1-1.4-2-1.2
		l-3.1,0.7C122.5,311.7,121.9,312.6,122.2,313.5z"/>
	<path class="st22" d="M121.6,280.6l-0.3-0.8c-0.3-0.7-1.2-1.1-2-0.8l-1.4,0.6c-0.7,0.3-1.1,1.2-0.8,2l0.3,0.8
		c0.3,0.7,1.2,1.1,2,0.8l1.5-0.6C121.6,282.3,122,281.4,121.6,280.6z"/>
	<path class="st22" d="M132.7,276.6l-0.2-0.9c-0.2-0.8-1-1.4-1.8-1.2l-1.6,0.3c-0.8,0.2-1.4,1-1.2,1.8l0.2,0.9
		c0.2,0.8,1,1.4,1.8,1.2l1.6-0.3C132.3,278.2,132.8,277.4,132.7,276.6z"/>
</g>
<g>
	<g>
		<path class="st21" d="M168.1,249.1c7.7,2.1,8.7,9.5,9,15.7c0.5,9.4-0.6,18.8-0.8,28.2l0,0c-0.1,1.4,2.5,1.2,2.5-0.2"/>
	</g>
	<g>
		<path class="st22" d="M174,290c-3.5,1.1-5.6,4.8-4.5,8.4c1.1,3.5,4.8,5.6,8.4,4.5c3.5-1.1,5.6-4.8,4.5-8.4
			C181.4,290.9,177.6,288.9,174,290z"/>
		<path class="st23" d="M174.5,290c-2.8,0.8-4.3,3.7-3.5,6.4c0.8,2.8,3.7,4.3,6.4,3.5c2.8-0.8,4.3-3.7,3.5-6.4
			C180.1,290.8,177.2,289.2,174.5,290z"/>
		<path class="st22" d="M174.4,287.9c-2.8,0.8-4.3,3.7-3.5,6.4c0.8,2.8,3.7,4.3,6.4,3.5c2.8-0.8,4.3-3.7,3.5-6.4
			C180,288.7,177.1,287.1,174.4,287.9z"/>
	</g>
</g>
<path class="st2" d="M115.6,410L115.6,410c0.2-0.7,1-1.2,1.7-1l29.7,6.8c0.3,0,0.6,0.1,0.8,0.3l2.1,1.4c0.2,0.2,0.1,0.7-0.2,0.7
	l-2.5,0.3c-0.3,0.1-0.6,0.1-0.9,0l-29.7-6.8C115.8,411.5,115.3,410.8,115.6,410z"/>
<path class="st24" d="M165.9,215.6v-0.8c0-0.8,0.3-1.4,0.7-2c0.6-0.9,1.6-1.4,2.7-1.4h5c1.8,0,3.3,1.5,3.3,3.3v0.8
	c0,1.8-1.5,3.3-3.3,3.3h-5C167.5,218.8,165.9,217.2,165.9,215.6z"/>
<path class="st24" d="M146.2,215.1V215c0-2,1.7-3.7,3.7-3.7h6.8c2,0,3.7,1.7,3.7,3.7v0.1c0,2-1.7,3.7-3.7,3.7h-6.8
	C147.9,218.8,146.2,217.1,146.2,215.1z"/>
<path class="st24" d="M159.4,212.3c4.1-3.1,7.1,0,7.1,0"/>
<line class="st24" x1="147.2" y1="211.9" x2="131.9" y2="205.8"/>
<ellipse transform="matrix(0.5875 -0.8092 0.8092 0.5875 -169.0609 394.9554)" class="st25" cx="302.9" cy="363.3" rx="19.1" ry="13"/>
<path class="st26" d="M298.4,370.3l4.4-13.1c0.5-1.5,2-3,3.4-3.2l0,0c1.4-0.3,2.1,0.8,1.6,2.3l-4.4,13.1c-0.5,1.5-2,3-3.4,3.2l0,0
	C298.6,372.9,297.9,371.8,298.4,370.3z"/>
<path class="st26" d="M308.1,365l-11.7,2.1c-1.4,0.3-2.1-0.8-1.6-2.3l0,0c0.5-1.5,2-3,3.4-3.2l11.7-2.1c1.4-0.3,2.1,0.8,1.6,2.3l0,0
	C310.9,363.3,309.4,364.8,308.1,365z"/>
<g class="st27">
	<path class="st7" d="M86.7,160.2c1.5,0,2.6,1.2,2.6,2.6c0,1.5-1.2,2.6-2.6,2.6c-1.5,0-2.6-1.2-2.6-2.6
		C84.1,161.4,85.2,160.3,86.7,160.2z"/>
	<path class="st7" d="M59.8,160.2c1.5,0,2.6,1.2,2.6,2.6c0,1.5-1.2,2.6-2.6,2.6c-1.5,0-2.6-1.2-2.6-2.6
		C57.2,161.4,58.4,160.3,59.8,160.2z"/>
	<path class="st7" d="M33,160.2c1.5,0,2.6,1.2,2.6,2.6c0,1.5-1.2,2.6-2.6,2.6c-1.5,0-2.6-1.2-2.6-2.6
		C30.4,161.4,31.5,160.3,33,160.2z"/>
	<path class="st7" d="M86.7,180c1.5,0,2.6,1.2,2.6,2.6c0,1.5-1.2,2.6-2.6,2.6c-1.5,0-2.6-1.2-2.6-2.6C84.1,181.2,85.2,180,86.7,180z
		"/>
	<path class="st7" d="M59.8,180c1.5,0,2.6,1.2,2.6,2.6c0,1.5-1.2,2.6-2.6,2.6c-1.5,0-2.6-1.2-2.6-2.6C57.2,181.2,58.4,180,59.8,180z
		"/>
	<path class="st7" d="M33,180c1.5,0,2.6,1.2,2.6,2.6c0,1.5-1.2,2.6-2.6,2.6c-1.5,0-2.6-1.2-2.6-2.6C30.4,181.2,31.5,180,33,180z"/>
	<path class="st7" d="M86.7,199.8c1.5,0,2.6,1.1,2.6,2.6s-1.2,2.6-2.6,2.6c-1.5,0-2.6-1.2-2.6-2.6S85.2,199.8,86.7,199.8z"/>
	<path class="st7" d="M59.8,199.8c1.5,0,2.6,1.1,2.6,2.6s-1.2,2.6-2.6,2.6c-1.5,0-2.6-1.2-2.6-2.6S58.4,199.8,59.8,199.8z"/>
	<path class="st7" d="M33,199.8c1.5,0,2.6,1.1,2.6,2.6S34.4,205,33,205c-1.5,0-2.6-1.2-2.6-2.6S31.5,199.8,33,199.8z"/>
</g>
<path class="st28" d="M231.1,267.8c0,0,33.1,0,36.2,0"/>
<path class="st28" d="M39.1,116.1c0,0,33.1,0,36.2,0"/>
</svg>
