<svg xmlns="http://www.w3.org/2000/svg" width="30" height="30" viewBox="0 0 22 20">
  <g id="Group_3" data-name="Group 3" transform="translate(-2 -2)">
    <path id="Path_112" data-name="Path 112" d="M11.139,4.317a1.974,1.974,0,0,1,3.722,0A1.789,1.789,0,0,0,15.99,5.5a2.1,2.1,0,0,0,1.73-.121c1.714-.94,3.678.826,2.633,2.37a1.574,1.574,0,0,0-.134,1.556,1.872,1.872,0,0,0,1.317,1.016,1.69,1.69,0,0,1,0,3.35,1.872,1.872,0,0,0-1.319,1.016,1.574,1.574,0,0,0,.134,1.557c1.044,1.543-.918,3.31-2.633,2.37a2.1,2.1,0,0,0-1.729-.12,1.789,1.789,0,0,0-1.128,1.185,1.974,1.974,0,0,1-3.722,0A1.789,1.789,0,0,0,10.01,18.5a2.1,2.1,0,0,0-1.73.121c-1.714.94-3.678-.826-2.633-2.37a1.574,1.574,0,0,0,.134-1.556,1.872,1.872,0,0,0-1.317-1.016,1.69,1.69,0,0,1,0-3.35A1.872,1.872,0,0,0,5.782,9.309a1.574,1.574,0,0,0-.134-1.557c-1.044-1.543.918-3.31,2.633-2.37a1.978,1.978,0,0,0,2.858-1.065Z" fill="none" stroke="#173885" stroke-linecap="round" stroke-linejoin="round" stroke-width="2"/>
    <path id="Path_113" data-name="Path 113" d="M15,12a3,3,0,1,1-3-3A3,3,0,0,1,15,12Z" transform="translate(1)" fill="none" stroke="#173885" stroke-linecap="round" stroke-linejoin="round" stroke-width="2"/>
  </g>
</svg>
