<svg id="Layer_1" data-name="Layer 1" xmlns="http://www.w3.org/2000/svg" viewBox="0 0 1921 200.5"><defs><style>.cls-1{fill:#00bfba;}</style></defs><title>Footer2</title><path class="cls-1" d="M201,718.24c170.48-28.84,296.07,64.34,457,45.65,42.93-5,106.27-20,173-70.45a349.91,349.91,0,0,1,83-31.56c205-50.4,445.56,62.6,463,71a779.45,779.45,0,0,0,135,9.58c159.86-2.58,271.45-53.71,311-73.84,38.28-20.35,57.51-21.77,68-19.16,5,1.25,13.09,7.24,29,19.16h0V849H-1V724.44C1.5,728.66,9.42,740.06,30,747c25.89,8.71,61.21,6.75,89-5.08A363.43,363.43,0,0,1,201,718.24Z" transform="translate(1 -648.5)"/></svg>