<svg xmlns="http://www.w3.org/2000/svg" width="512" height="512" viewBox="0 0 512 512">
  <path id="Linkedin_svgsvg" d="M449.446,0A62.584,62.584,0,0,1,512,62.554V449.446A62.584,62.584,0,0,1,449.446,512H62.554A62.584,62.584,0,0,1,0,449.446V62.554A62.584,62.584,0,0,1,62.554,0H449.446ZM160.461,423.278V197.561H85.421V423.278Zm270.539,0V293.839c0-69.333-37.018-101.586-86.381-101.586-39.8,0-57.634,21.891-67.617,37.266V197.561H201.981c.995,21.181,0,225.717,0,225.717H277V297.222c0-6.748.486-13.492,2.474-18.315,5.414-13.475,17.767-27.434,38.494-27.434,27.135,0,38.007,20.707,38.007,51.037V423.278H431ZM123.448,88.722C97.774,88.722,81,105.6,81,127.724c0,21.658,16.264,39,41.455,39h.484c26.165,0,42.452-17.344,42.452-39-.485-22.092-16.241-38.954-41.943-39Z" fill="#173885" fill-rule="evenodd"/>
</svg>
