<?xml version="1.0" encoding="utf-8"?>
<!-- Generator: Adobe Illustrator 23.1.0, SVG Export Plug-In . SVG Version: 6.00 Build 0)  -->
<svg version="1.1" id="Layer_1" xmlns="http://www.w3.org/2000/svg" xmlns:xlink="http://www.w3.org/1999/xlink" x="0px" y="0px"
	 viewBox="0 0 1920 900" style="enable-background:new 0 0 1920 900;" xml:space="preserve" preserveAspectRatio="none">
<style type="text/css">
	.st0{fill:#1C8ADB;}
	.st1{display:none;fill:url(#SVGID_1_);}
	.st2{fill:url(#SVGID_2_);}
	.st3{fill:#FFFFFF;}
	.st4{enable-background:new    ;}
	.st5{fill:#00BFBA;}
	.st6{fill:#173885;}
	.st7{fill:none;stroke:#00BFBA;stroke-width:9;stroke-linecap:round;stroke-linejoin:round;}
	.st8{fill:none;stroke:#173885;stroke-width:6;stroke-linecap:round;stroke-linejoin:round;}
</style>
<rect x="-0.1" class="st0" width="1920" height="900"/>
<linearGradient id="SVGID_1_" gradientUnits="userSpaceOnUse" x1="1573.6127" y1="1320.8322" x2="1030.3018" y2="1816.6611" gradientTransform="matrix(1 0 0 1 0 -711.8511)">
	<stop  offset="0" style="stop-color:#000000;stop-opacity:0.42"/>
	<stop  offset="1" style="stop-color:#000000;stop-opacity:0"/>
</linearGradient>
<polygon class="st1" points="1852.9,702.9 1634.3,133.8 1107.1,900 1715.6,899.2 "/>
<linearGradient id="SVGID_2_" gradientUnits="userSpaceOnUse" x1="1584.386" y1="347.4519" x2="879.8483" y2="-295.514" gradientTransform="matrix(1 0 0 -1 0 902)">
	<stop  offset="0" style="stop-color:#000000;stop-opacity:0.42"/>
	<stop  offset="1" style="stop-color:#000000;stop-opacity:0"/>
</linearGradient>
<polygon class="st2" points="1840,132.1 1577.7,133.8 950.3,900 1674.4,899.2 1837.9,650.2 "/>
<path shape-rendering="auto" color-rendering="auto" image-rendering="auto" class="st3" d="M1608,119c-22.3,0-40.1,19.6-40.1,44
	v456.2c0,24.4,17.8,44,40.1,44h202.2c22.3,0,40.1-19.6,40.1-44v-456c0-24.4-17.8-44-40.1-44H1608V119z M1610.4,132.1h197.3
	c15.9,0,28.8,14.1,28.8,31.6v454.8c0,17.5-12.9,31.6-28.8,31.6h-197.3c-15.9,0-28.8-14.1-28.8-31.6V163.7
	C1581.6,146.2,1594.4,132.1,1610.4,132.1L1610.4,132.1z M1682.7,154.5c-4.9,0-8.9,4.4-8.9,9.7s3.9,9.7,8.9,9.7h52.9
	c4.9,0,8.9-4.4,8.9-9.7s-3.9-9.7-8.9-9.7H1682.7z M1588.6,190.1v386.3h240.7V190.1H1588.6L1588.6,190.1z M1601,205.6H1817v355.2
	H1601V205.6L1601,205.6z M1709.1,589.7c-12.4,0-22.6,11.1-22.6,24.8s10.1,24.8,22.6,24.8s22.6-11.1,22.6-24.8
	S1721.6,589.7,1709.1,589.7z"/>
<rect x="1590.9" y="190.3" class="st3" width="229.4" height="386.3"/>
<g>
	<g class="st4">
		<path class="st5" d="M1623.6,238.9h5.7v46.6h-5.7V238.9z"/>
		<path class="st5" d="M1637.2,250.5h4.7l0.4,4.7h0.2c2.2-3.1,4.7-5.6,8.1-5.6c5.3,0,7.5,5,7.5,13.9v21.9h-5.7v-20.9
			c0-5.8-1.2-7.9-3.8-7.9c-2.2,0-3.6,1.5-5.6,4.4v24.4h-5.7L1637.2,250.5L1637.2,250.5z"/>
	</g>
</g>
<g>
	<g class="st4">
		<path class="st6" d="M1663.6,238.9h5.7v18.7h13.2v-18.7h5.7v46.6h-5.7v-20.7h-13.2v20.7h-5.7V238.9z"/>
		<path class="st6" d="M1694.6,268c0-11.4,5.5-18.4,11.2-18.4c6.6,0,10.1,6.8,10.1,16.6c0,1.5-0.1,3.2-0.4,3.9h-15.4
			c0.5,6.2,3.2,9.7,7.2,9.7c2.2,0,3.9-1,5.7-2.5l2,5.1c-2.3,2.3-5.3,3.8-8.4,3.8C1699.9,286.4,1694.6,279.6,1694.6,268z M1711,264.8
			c0-5.4-1.7-8.6-5-8.6c-2.9,0-5.4,3.1-5.9,8.6H1711z"/>
		<path class="st6" d="M1720.1,276.1c0-7.4,4.4-11.4,14.4-12.9c-0.1-3.7-1.1-6.9-4.5-6.9c-2.4,0-4.7,1.5-6.9,3.4l-2.2-5.5
			c2.8-2.4,6.2-4.6,10.1-4.6c6.1,0,9.2,5.4,9.2,15.1v20.7h-4.7l-0.4-3.8h-0.2c-2.2,2.6-4.7,4.7-7.5,4.7
			C1723.1,286.4,1720.1,282.3,1720.1,276.1z M1734.6,276.1v-7.9c-6.7,1.2-8.9,3.7-8.9,7.2c0,3.1,1.6,4.5,3.5,4.5
			C1731.1,280,1732.8,278.5,1734.6,276.1z"/>
		<path class="st6" d="M1747.2,276.6v-41.3h5.7V277c0,2,0.6,2.7,1.2,2.7c0.2,0,0.5,0,0.8-0.1l0.7,6.1c-0.7,0.4-1.7,0.8-3,0.8
			C1748.6,286.4,1747.2,282.6,1747.2,276.6z"/>
		<path class="st6" d="M1761.6,273.7v-16.6h-3.5V251l3.8-0.3l0.7-9.5h4.8v9.5h6.3v6.6h-6.5v16.6c0,4.2,1.1,6.1,3.5,6.1
			c0.8,0,1.8-0.4,2.6-0.8l1,6c-1.3,0.7-3,1.3-5,1.3C1763.7,286.4,1761.6,281.3,1761.6,273.7z"/>
		<path class="st6" d="M1778.6,235.2h5.7v13l-0.2,6.8c2.2-2.7,4.5-5.3,7.9-5.3c5.3,0,7.5,5,7.5,13.9v21.9h-5.7v-20.9
			c0-5.8-1.2-7.9-3.8-7.9c-2.2,0-3.6,1.5-5.6,4.4v24.4h-5.7L1778.6,235.2L1778.6,235.2z"/>
	</g>
</g>
<g>
	<path id="Path_111_1_" class="st7" d="M1660.3,443.2l27.9,39.8l69.8-99.5"/>
</g>
<ellipse class="st8" cx="1709.1" cy="434" rx="89.3" ry="94"/>
</svg>
