<svg xmlns="http://www.w3.org/2000/svg" width="46.4" height="35.5" viewBox="0 0 46.4 35.5">
  <path id="Path_2" data-name="Path 2" d="M3,6.958A3.152,3.152,0,0,1,6.314,4H46.086A3.152,3.152,0,0,1,49.4,6.958a3.152,3.152,0,0,1-3.314,2.958H6.314A3.152,3.152,0,0,1,3,6.958ZM3,21.75a3.152,3.152,0,0,1,3.314-2.958H46.086A3.152,3.152,0,0,1,49.4,21.75a3.152,3.152,0,0,1-3.314,2.958H6.314A3.152,3.152,0,0,1,3,21.75ZM3,36.542a3.152,3.152,0,0,1,3.314-2.958H46.086A3.152,3.152,0,0,1,49.4,36.542,3.152,3.152,0,0,1,46.086,39.5H6.314A3.152,3.152,0,0,1,3,36.542Z" transform="translate(-3 -4)" fill="#173885"/>
</svg>
