<svg id="qTB" xmlns="http://www.w3.org/2000/svg" width="109.705" height="95.202" viewBox="0 0 109.705 95.202">
  <g id="quotationsvg" transform="translate(145.705 93.202) rotate(180)">
    <g id="Group_4" data-name="Group 4" transform="translate(96.295 -2)">
      <path id="Path_122" data-name="Path 122" d="M167.706,0h-40A4.5,4.5,0,0,0,123,4.2V40.266a4.5,4.5,0,0,0,4.7,4.2h15.02C142.015,61.211,137.009,69.7,127.7,69.7a4.5,4.5,0,0,0-4.7,4.2V91a4.5,4.5,0,0,0,4.7,4.2,44.567,44.567,0,0,0,19.471-4.108,39.532,39.532,0,0,0,14.211-11.556A49.982,49.982,0,0,0,169.729,62.2a83.645,83.645,0,0,0,2.68-21.893V4.2A4.5,4.5,0,0,0,167.706,0Z" transform="translate(-123)" fill="#48c8ff"/>
    </g>
    <path id="Path_123" data-name="Path 123" d="M47.271,0H4.973C2.246,0,0,1.9,0,4.2V40.266c0,2.3,2.246,4.2,4.973,4.2H20.855C20.106,61.211,14.812,69.7,4.973,69.7,2.246,69.7,0,71.593,0,73.9V91c0,2.3,2.246,4.2,4.973,4.2a49.421,49.421,0,0,0,20.588-4.108A41.427,41.427,0,0,0,40.587,79.538,48.9,48.9,0,0,0,49.41,62.2a79.359,79.359,0,0,0,2.834-21.893V4.2C52.244,1.9,50,0,47.271,0Z" transform="translate(36 -2)" fill="#48c8ff"/>
  </g>
</svg>
