<?xml version="1.0" encoding="utf-8"?>
<!-- Generator: Adobe Illustrator 23.1.0, SVG Export Plug-In . SVG Version: 6.00 Build 0)  -->
<svg version="1.1" id="Capa_1" xmlns="http://www.w3.org/2000/svg" xmlns:xlink="http://www.w3.org/1999/xlink" x="0px" y="0px"
	 viewBox="0 0 220.7 210.9" style="enable-background:new 0 0 220.7 210.9;" xml:space="preserve" preserveAspectRatio="none">
<g>
	<path d="M211.4,0h-79.1c-5.1,0-9.3,4.2-9.3,9.3v79.9c0,5.1,4.2,9.3,9.3,9.3H162c-1.4,37.1-11.3,55.9-29.7,55.9
		c-5.1,0-9.3,4.2-9.3,9.3v37.9c0,5.1,4.2,9.3,9.3,9.3c14.4,0,27.4-3.1,38.5-9.1c11.1-6,20.5-14.6,28.1-25.6
		c7.3-10.7,12.9-23.6,16.5-38.4c3.5-14.4,5.3-30.7,5.3-48.5V9.3C220.7,4.2,216.5,0,211.4,0z"/>
</g>
<path d="M88.4,0H9.3C4.2,0,0,4.2,0,9.3v79.9c0,5.1,4.2,9.3,9.3,9.3H39c-1.4,37.1-11.3,55.9-29.7,55.9c-5.1,0-9.3,4.2-9.3,9.3v37.9
	c0,5.1,4.2,9.3,9.3,9.3c14.4,0,27.4-3.1,38.5-9.1c11.1-6,20.5-14.6,28.1-25.6c7.3-10.7,12.9-23.6,16.5-38.4
	c3.5-14.4,5.3-30.7,5.3-48.5V9.3C97.7,4.2,93.5,0,88.4,0z"/>
</svg>
