<?xml version="1.0" encoding="utf-8"?>
<!-- Generator: Adobe Illustrator 23.1.0, SVG Export Plug-In . SVG Version: 6.00 Build 0)  -->
<svg version="1.1" id="Layer_1" xmlns="http://www.w3.org/2000/svg" xmlns:xlink="http://www.w3.org/1999/xlink" x="0px" y="0px"
	 viewBox="0 0 800 800" style="enable-background:new 0 0 800 800;" xml:space="preserve" preserveAspectRatio="none">
<style type="text/css">
	.st0{fill:#1C8ADB;}
	.st1{display:none;fill:#1C8ADB;}
	.st2{display:none;fill:url(#SVGID_1_);}
	.st3{fill:url(#SVGID_2_);}
	.st4{fill:#FFFFFF;}
	.st5{enable-background:new    ;}
	.st6{fill:#00BFBA;}
	.st7{fill:#173885;}
	.st8{fill:none;stroke:#00BFBA;stroke-width:9;stroke-linecap:round;stroke-linejoin:round;}
	.st9{fill:none;stroke:#173885;stroke-width:6;stroke-linecap:round;stroke-linejoin:round;}
</style>
<rect x="-327" y="0.3" class="st0" width="1133" height="799"/>
<ellipse shape-rendering="auto" color-rendering="auto" image-rendering="auto" class="st1" cx="391.8" cy="400" rx="333.3" ry="400"/>
<linearGradient id="SVGID_1_" gradientUnits="userSpaceOnUse" x1="396.0704" y1="1251.5502" x2="23.8942" y2="1591.2006" gradientTransform="matrix(1 0 0 1 0 -834)">
	<stop  offset="0" style="stop-color:#000000;stop-opacity:0.42"/>
	<stop  offset="1" style="stop-color:#000000;stop-opacity:0"/>
</linearGradient>
<path shape-rendering="auto" color-rendering="auto" image-rendering="auto" class="st2" d="M309.8,151.4c-9.9,0-18.8,5.1-24.9,13.3
	L59.3,435.3c10.8,195.8,96.8,343.1,307.7,364l134.3-161.1c6.8-7.4,11.1-18,11.1-29.9V191.7c0-22.3-14.9-40.2-33.5-40.2L309.8,151.4z
	"/>
<linearGradient id="SVGID_2_" gradientUnits="userSpaceOnUse" x1="289.5139" y1="1070.8867" x2="-298.2651" y2="1607.2976" gradientTransform="matrix(1 0 0 1 0 -556)">
	<stop  offset="0" style="stop-color:#000000;stop-opacity:0.42"/>
	<stop  offset="1" style="stop-color:#000000;stop-opacity:0"/>
</linearGradient>
<polygon class="st3" points="503.5,636.6 503.5,163.3 284.9,164.7 -242.3,800 366.2,799.3 "/>
<path shape-rendering="auto" color-rendering="auto" image-rendering="auto" class="st4" d="M309.8,151.2
	c-18.6,0-33.5,17.9-33.5,40.2v416.7c0,22.3,14.9,40.2,33.5,40.2h169c18.6,0,33.5-17.9,33.5-40.2V191.5c0-22.3-14.9-40.2-33.5-40.2
	h-169V151.2z M311.8,163.1h164.9c13.3,0,24.1,12.9,24.1,28.9v415.5c0,16-10.8,28.9-24.1,28.9H311.8c-13.3,0-24.1-12.9-24.1-28.9V192
	C287.7,176,298.4,163.1,311.8,163.1L311.8,163.1z M372.2,183.6c-4.1,0-7.4,4-7.4,8.9s3.3,8.9,7.4,8.9h44.2c4.1,0,7.4-4,7.4-8.9
	s-3.3-8.9-7.4-8.9H372.2z M293.6,216.1V569h201.2V216.1H293.6L293.6,216.1z M303.9,230.3h180.6v324.5H303.9V230.3L303.9,230.3z
	 M394.3,581.1c-10.4,0-18.9,10.1-18.9,22.7s8.4,22.7,18.9,22.7s18.9-10.1,18.9-22.7S404.7,581.1,394.3,581.1z"/>
<rect x="295.5" y="216.3" class="st4" width="191.7" height="352.9"/>
<g>
	<g class="st5">
		<path class="st6" d="M322.8,260.7h4.8v42.6h-4.8V260.7z"/>
		<path class="st6" d="M334.2,271.3h3.9l0.3,4.3h0.2c1.8-2.8,3.9-5.1,6.8-5.1c4.4,0,6.3,4.6,6.3,12.7v20h-4.8v-19.1
			c0-5.3-1-7.2-3.2-7.2c-1.8,0-3,1.4-4.7,4v22.3h-4.8L334.2,271.3L334.2,271.3z"/>
	</g>
</g>
<g>
	<g class="st5">
		<path class="st7" d="M356.3,260.7h4.8v17.1h11v-17.1h4.8v42.6h-4.8v-18.9h-11v18.9h-4.8V260.7z"/>
		<path class="st7" d="M382.2,287.3c0-10.4,4.6-16.8,9.4-16.8c5.5,0,8.4,6.2,8.4,15.2c0,1.4-0.1,2.9-0.3,3.6h-12.9
			c0.4,5.7,2.7,8.9,6,8.9c1.8,0,3.3-0.9,4.8-2.3l1.7,4.7c-1.9,2.1-4.4,3.5-7,3.5C386.6,304.1,382.2,297.9,382.2,287.3z M395.9,284.3
			c0-4.9-1.4-7.9-4.2-7.9c-2.4,0-4.5,2.8-4.9,7.9H395.9z"/>
		<path class="st7" d="M403.5,294.7c0-6.8,3.7-10.4,12-11.8c-0.1-3.4-0.9-6.3-3.8-6.3c-2,0-3.9,1.4-5.8,3.1l-1.8-5
			c2.3-2.2,5.2-4.2,8.4-4.2c5.1,0,7.7,4.9,7.7,13.8v18.9h-3.9l-0.3-3.5h-0.2c-1.8,2.4-3.9,4.3-6.3,4.3
			C406,304.1,403.5,300.3,403.5,294.7z M415.6,294.7v-7.2c-5.6,1.1-7.4,3.4-7.4,6.6c0,2.8,1.3,4.1,2.9,4.1S414.1,296.9,415.6,294.7z
			"/>
		<path class="st7" d="M426.1,295.1v-37.7h4.8v38.1c0,1.8,0.5,2.5,1,2.5c0.2,0,0.4,0,0.7-0.1l0.6,5.6c-0.6,0.4-1.4,0.7-2.5,0.7
			C427.3,304.1,426.1,300.6,426.1,295.1z"/>
		<path class="st7" d="M438.2,292.5v-15.2h-2.9v-5.6l3.2-0.3l0.6-8.7h4v8.7h5.3v6H443v15.2c0,3.8,0.9,5.6,2.9,5.6
			c0.7,0,1.5-0.4,2.2-0.7l0.8,5.5c-1.1,0.6-2.5,1.2-4.2,1.2C439.9,304.1,438.2,299.4,438.2,292.5z"/>
		<path class="st7" d="M452.4,257.3h4.8v11.9l-0.2,6.2c1.8-2.5,3.8-4.8,6.6-4.8c4.4,0,6.3,4.6,6.3,12.7v20h-4.8v-19.1
			c0-5.3-1-7.2-3.2-7.2c-1.8,0-3,1.4-4.7,4v22.3h-4.8L452.4,257.3L452.4,257.3z"/>
	</g>
</g>
<g>
	<path id="Path_111_1_" class="st8" d="M353.5,447.3l23.3,36.4l58.3-90.9"/>
</g>
<ellipse class="st9" cx="394.3" cy="438.9" rx="74.6" ry="85.9"/>
</svg>
